<?xml version="1.0" encoding="utf-8"?>
<svg version="1.1" xmlns="http://www.w3.org/2000/svg" xmlns:xlink="http://www.w3.org/1999/xlink"
     viewBox="0 0 500 61.6" xml:space="preserve" aria-label="TARPOR Luxury Logo" class="tarpor-logo">

  <style type="text/css">
    /* Left Halves - Dark Tones */
    .logo-deep-navy    { fill: #1A2347; }
    .logo-charcoal     { fill: #3A3A3A; }
    .logo-royal-purple { fill: #5D1D9E; }
    .logo-emerald      { fill: #025A31; }
    .logo-maroon       { fill: #5C1829; }
    .logo-midnight     { fill: #1E2B40; }

    /* Right Halves - Metallic Accents */
    .logo-gold         { fill: #D4AF37; }
    .logo-rose-gold    { fill: #B76E79; }
    .logo-platinum     { fill: #E5E4E2; }
    .logo-bronze       { fill: #AD7C44; }
    .logo-copper       { fill: #B86F52; }
    .logo-soft-gold    { fill: #E6BE8A; }
  </style>

    <!-- T Letter -->
    <rect x="13.65" y="0" class="logo-deep-navy" width="17.32" height="13.22"/>
    <polygon class="logo-gold" points="33.48,0 71.55,0 70.63,13.23 51.49,13.23 51.49,61.1 33.48,61.1"/>

    <!-- A Letter -->
    <polygon class="logo-charcoal" points="88.41,8.89 96.85,0 106.42,0 106.42,61.1 88.41,61.1"/>
    <polygon class="logo-rose-gold" points="108.42,0 138.85,0 148.76,8.67 148.76,61.1 130.76,61.1 130.87,43.89 108.42,44.57
    108.42,30.55 130.76,30.55 130.87,12.88 108.42,13.11"/>

    <!-- R Letter -->
    <rect x="169.65" y="0" class="logo-royal-purple" width="18.01" height="61.1"/>
    <polygon class="logo-platinum" points="190.51,0 190.51,12.92 214.11,12.92 214.11,27.05 190.51,27.05 190.51,40.73 201.68,40.73
    214.79,61.1 231.09,61.1 231.09,53.38 221.17,39.82 231.09,30.55 231.09,9.16 221.74,0.5"/>

    <!-- P Letter -->
    <rect x="253.43" y="0" class="logo-emerald" width="17.95" height="61.1"/>
    <polygon class="logo-bronze" points="273.86,0 273.86,13.26 295.23,13.26 295.23,30.55 273.86,30.55 273.86,44.46 302.58,44.46
    313.01,35.66 313.01,8.82 303.78,0"/>

    <!-- O Letter -->
    <polygon class="logo-maroon" points="334.98,8.48 344.72,0 352.24,0 352.24,61.22 345.06,61.22 334.98,52.33"/>
    <polygon class="logo-copper" points="354.64,0 354.64,13.26 377.12,13.26 377.12,48.48 354.64,48.48 354.64,61.22 385.58,61.22
    394.98,51.82 394.98,8.9 385.71,-0.38"/>

    <!-- R Letter (Repeated) -->
    <rect x="416.53" y="-0.38" class="logo-midnight" width="17.78" height="61.98"/>
    <polygon class="logo-soft-gold" points="436.79,-0.38 436.79,13.26 460.46,13.26 460.46,27.37 436.79,27.37 436.79,41.13 447.9,41.13
    460.46,61.22 477.85,61.22 477.85,53.38 467.59,39.48 477.85,30.42 477.85,8.25 468.5,0.38"/>
</svg>
